# xmcd
#
# Track frame offsets: 
#        150
#        19567
#        38935
#        57568
#        77042
#        95899
#        121381
#        140319
#        140972
#        181832
#        207374
#        226897
#        248302
#        248940
#        250615
#        264785
#        274941
#
# Disc length: 3994 seconds
#
# Revision: 0
# Processed by: cddbd v1.5.1PL0 Copyright (c) Steve Scherf et al.
# Submitted via: ExactAudioCopy v0.95a4
#
DISCID=ec0f9811
DTITLE=John Lee Hooker - Wise Fools Pub, 1976 (+ extra)
DYEAR=1976
DGENRE=Blues
TTITLE0=01 - Boom, Boom
TTITLE1=02 - Serves Me Right To Suffer
TTITLE2=03 - You Know It Ain't Right
TTITLE3=04 - Hobo Blues
TTITLE4=05 - One Bourbon, One Scotch, One Beer
TTITLE5=06 - Whisky and Women
TTITLE6=07 - Crawling King Snake
TTITLE7=08 - Bud Advert
TTITLE8=09 - Boogie Chillen'
TTITLE9=10 - Hey Baby
TTITLE10=11 - Maudie
TTITLE11=12 - Crazy 'Bout You Baby
TTITLE12=13 - Bud Advert
TTITLE13=14 - Extra Tracks Intro
TTITLE14=15 - I Need Money
TTITLE15=16 - Bottle Up And Go
TTITLE16=17 - ?
EXTD=
EXTT0=
EXTT1=
EXTT2=
EXTT3=
EXTT4=
EXTT5=
EXTT6=
EXTT7=
EXTT8=
EXTT9=
EXTT10=
EXTT11=
EXTT12=
EXTT13=
EXTT14=
EXTT15=
EXTT16=
PLAYORDER=
